<svg width="428" height="336" viewBox="0 0 428 336" fill="none" xmlns="http://www.w3.org/2000/svg">
<path fill-rule="evenodd" clip-rule="evenodd" d="M325.513 2.40542V112.728H318.948V76.1864H278.578V126.391H268.562V113.4H270.355V112.12H268.562V96.2169H270.355V94.937H268.562V79.0342H270.355V77.7542H268.562V61.8514H270.355V60.5715H268.562V44.6687H270.355V43.3888H268.562V27.486H270.355V26.2061H268.562V9.75925H271.641V8.47937H273.232V4.9916H265.956V1.11993H266.904V0H250.898V1.11993H251.845V4.9916H222.439V8.47937H224.03V9.75925H227.109V26.238H225.315V27.518H227.109V43.3888H225.315V44.6687H227.109V60.5715H225.315V61.8514H227.109V77.7542H225.315V79.0342H227.109V94.937H225.315V96.2169H227.109V112.12H225.315V112.696H215.333V37.95H216.89V35.0061H206.602V26.9748H192.762V35.0061H184.066V26.9748H157.468V35.0061H151.242V37.95H154.761V78.139L132.867 77.8514V64.7952H113.139V22.5903L114.492 22.5445L65.1547 22.6223V87.5136H50.2654V113.912H24.1078V54.972H25.6644V52.3481H0V336H428V100.729H417.522V64.0912H392.244V123.671H385.442V17.9132L325.513 2.40542ZM377.524 101.369H374.309V93.6571H377.524V101.369ZM377.524 86.5856H374.309V78.8742H377.524V86.5856ZM377.524 72.6987H374.309V64.9872H377.524V72.6987ZM377.524 57.9157H374.309V50.2043H377.524V57.9157ZM377.524 43.1648H374.309V35.4534H377.524V43.1648ZM377.524 28.3819H374.309V20.6705H377.524V28.3819ZM363.718 101.369H360.503V93.6571H363.718V101.369ZM363.718 86.5856H360.503V78.8742H363.718V86.5856ZM363.718 72.6987H360.503V64.9872H363.718V72.6987ZM363.718 57.9157H360.503V50.2043H363.718V57.9157ZM363.718 43.1648H360.503V35.4534H363.718V43.1648ZM363.718 28.3819H360.503V20.6705H363.718V28.3819ZM349.911 101.369H346.697V93.6571H349.911V101.369ZM349.911 86.5856H346.697V78.8742H349.911V86.5856ZM349.911 72.6987H346.697V64.9872H349.911V72.6987ZM349.911 57.9157H346.697V50.2043H349.911V57.9157ZM349.911 43.1648H346.697V35.4534H349.911V43.1648ZM349.911 28.3819H346.697V20.6705H349.911V28.3819ZM336.139 101.369H332.924V93.6571H336.139V101.369ZM336.139 86.5856H332.924V78.8742H336.139V86.5856ZM336.139 72.6987H332.924V64.9872H336.139V72.6987ZM336.139 57.9157H332.924V50.2043H336.139V57.9157ZM336.139 43.1648H332.924V35.4534H336.139V43.1648ZM336.139 28.3819H332.924V20.6705H336.139V28.3819ZM264.535 110.296H262.369V101.88H264.535V110.296ZM264.535 92.2812H262.369V83.8658H264.535V92.2812ZM264.535 76.1544H262.369V67.739H264.535V76.1544ZM264.535 58.3957H262.369V49.9803H264.535V58.3957ZM264.535 40.637H262.369V32.2216H264.535V40.637ZM264.535 23.3263H262.369V14.9109H264.535V23.3263ZM253.808 110.296H251.642V101.88H253.808V110.296ZM253.808 92.2812H251.642V83.8658H253.808V92.2812ZM253.808 76.1544H251.642V67.739H253.808V76.1544ZM253.808 58.3957H251.642V49.9803H253.808V58.3957ZM253.808 40.637H251.642V32.2216H253.808V40.637ZM253.808 23.3263H251.642V14.9109H253.808V23.3263ZM243.115 110.296H240.949V101.88H243.115V110.296ZM243.115 92.2812H240.949V83.8658H243.115V92.2812ZM243.115 76.1544H240.949V67.739H243.115V76.1544ZM243.115 58.3957H240.949V49.9803H243.115V58.3957ZM243.115 40.637H240.949V32.2216H243.115V40.637ZM243.115 23.3263H240.949V14.9109H243.115V23.3263ZM232.422 92.2812H230.256V83.8658H232.422V92.2812ZM232.422 76.1544H230.256V67.739H232.422V76.1544ZM232.422 58.3957H230.256V49.9803H232.422V58.3957ZM232.422 40.637H230.256V32.2216H232.422V40.637ZM232.422 23.3263H230.256V14.9109H232.422V23.3263ZM108.097 56.3158H106.1V50.9083H108.097V56.3158ZM108.097 46.0126H106.1V40.605H108.097V46.0126ZM108.097 36.3173H106.1V30.9097H108.097V36.3173ZM101.836 56.3158H99.8398V50.9083H101.836V56.3158ZM101.836 46.0126H99.8398V40.605H101.836V46.0126ZM101.836 36.3173H99.8398V30.9097H101.836V36.3173ZM95.9146 56.3158H93.918V50.9083H95.9146V56.3158ZM95.9146 46.0126H93.918V40.605H95.9146V46.0126ZM95.9146 36.3173H93.918V30.9097H95.9146V36.3173ZM89.6204 56.3158H87.6239V50.9083H89.6204V56.3158ZM89.6204 46.0126H87.6239V40.605H89.6204V46.0126ZM89.6204 36.3173H87.6239V30.9097H89.6204V36.3173ZM82.7511 46.0126H80.7546V40.605H82.7511V46.0126ZM82.7511 36.3173H80.7546V30.9097H82.7511V36.3173ZM76.4908 36.3173H74.4943V30.9097H76.4908V36.3173ZM21.1638 72.0587H18.9642V67.227H21.1638V72.0587ZM21.1638 64.2513H18.9642V59.4196H21.1638V64.2513ZM15.5465 64.2513H13.3469V59.4196H15.5465V64.2513Z" fill="#B5DBE1"/>
</svg>
