<svg width="428" height="387" viewBox="0 0 428 387" fill="none" xmlns="http://www.w3.org/2000/svg">
<path d="M0 387V29.3834C7.96776 12.1997 28.1119 0 51.7031 0C78.2389 0 100.413 15.4352 105.804 36.0367C115.387 29.4666 127.694 25.517 141.117 25.517C149.575 25.517 157.59 27.0852 164.76 29.889C172.564 12.4395 192.871 0 216.693 0C242.16 0 263.61 14.2166 270.062 33.5726C275.074 32.3388 280.385 31.6762 285.883 31.6762C302.342 31.6762 317.122 37.6143 327.261 47.04C332.03 25.7792 354.582 9.67885 381.684 9.67885C401.06 9.67885 418.111 17.9088 428 30.3707V387H0Z" fill="white"/>
</svg>
