<svg width="428" height="228" viewBox="0 0 428 228" fill="none" xmlns="http://www.w3.org/2000/svg">
<path d="M0 35.1C0 15.7148 17.4202 0 38.9091 0C59.7424 0 76.7514 14.7705 77.7699 33.3363C83.4304 29.365 90.5442 27 98.2704 27C108.967 27 118.489 31.5328 124.607 38.5852C128.568 21.684 145.199 9 165.114 9C179.668 9 192.468 15.7742 199.851 26.0181C204.288 11.0352 219.438 0 237.445 0C256.532 0 272.408 12.3975 275.72 28.7529C283.195 22.1037 293.46 18 304.788 18C316.875 18 327.753 22.6726 335.322 30.1247C341.292 12.6775 359.31 0 380.611 0C406.783 0 428 19.1398 428 42.75V228H0V35.1Z" fill="#74CA7E"/>
<path d="M0 38.9221V228H428V41.7623C418.407 49.225 411.136 58.9165 407.253 69.9064C395.859 59.0451 379.486 52.2348 361.292 52.2348C344.242 52.2348 328.791 58.2159 317.539 67.907C312.555 44.0693 288.657 26 259.928 26C232.823 26 210.019 42.0837 203.341 63.9211C192.228 48.9908 172.961 39.1174 151.055 39.1174C121.078 39.1174 96.0454 57.6042 90.0826 82.2376C80.8745 71.9588 66.5409 65.3523 50.4407 65.3523C38.8113 65.3523 28.1035 68.7992 19.5833 74.5873C18.7803 60.4158 11.3757 47.7614 0 38.9221Z" fill="#76EB84"/>
</svg>
