<svg xmlns="http://www.w3.org/2000/svg" width="70" height="46" fill="none" viewBox="0 0 70 46">
  <path fill="#ff4e27" d="M60.577 23c0 12.703-11 23-24.568 23S5.17 31.886 5.17 23 22.44 0 36.008 0s24.568 10.298 24.568 23"/>
  <path fill="#000" fill-opacity=".2" d="M60.068 27.684c-4.726 7.823-13.571 13.089-23.704 13.089-11.392 0-25.129-9.123-31.194-17.94L5.168 23c0 8.887 17.272 23 30.841 23 11.854 0 21.748-7.86 24.059-18.316" style="mix-blend-mode:multiply"/>
  <path fill="#fff" d="M43.965 1.233C53.63 4.328 60.577 12.904 60.577 23c0 1.539-.161 3.043-.469 4.497A15.4 15.4 0 0 1 53.441 29c-8.56 0-15.5-6.94-15.5-15.5 0-4.992 2.36-9.432 6.024-12.267"/>
  <path fill="#000" fill-rule="evenodd" d="M51.975 18.708c1.367-.492 1.977-2.277 1.362-3.987s-2.222-2.697-3.59-2.204-1.978 2.277-1.363 3.986c.616 1.71 2.223 2.697 3.59 2.205m-.608-3.502c.415-.149.6-.69.414-1.208-.187-.519-.674-.818-1.089-.669-.415.15-.6.69-.413 1.209.186.518.674.818 1.088.668" clip-rule="evenodd"/>
  <path fill="#ffbf32" d="M53.26 20.91a8.364 8.364 0 1 0 0 16.726h8.886a3.66 3.66 0 0 0 0-7.318h-2.614 5.75a4.705 4.705 0 1 0 0-9.409z"/>
  <path fill="#ce8e00" fill-rule="evenodd" d="M51.441 30a.5.5 0 0 1 .5-.5h10a.5.5 0 1 1 0 1h-10a.5.5 0 0 1-.5-.5" clip-rule="evenodd"/>
  <path fill="#fff" d="M31.363 25.09c.033 5.197-6.962 9.454-15.622 9.508S.033 30.484 0 25.288s6.961-9.454 15.622-9.508 15.708 4.114 15.74 9.31"/>
  <path fill="#000" fill-opacity=".15" d="M31.199 23.759c-.937 4.657-7.215 8.717-15.155 9.47-5.235.498-10.031-.553-13.206-2.588 2.849 2.423 7.57 3.99 12.903 3.957 8.66-.054 15.655-4.311 15.622-9.507a5.8 5.8 0 0 0-.164-1.332"/>
</svg>